<svg xmlns="http://www.w3.org/2000/svg" width="48.036" height="21.294" viewBox="0 0 48.036 21.294">
  <g id="Grupo_20001" data-name="Grupo 20001" transform="translate(-321.019 -6.152)">
    <g id="Grupo_20001-2" data-name="Grupo 20001">
      <path id="Trazado_23844" data-name="Trazado 23844" d="M2726.373,2759.689v.713h-2.24v-10.557h2.325v4.109a3,3,0,0,1,2.04-.785,3.693,3.693,0,0,1,0,7.375,2.939,2.939,0,0,1-2.126-.856m3.252-2.825a1.614,1.614,0,1,0-1.612,1.7,1.634,1.634,0,0,0,1.612-1.7" transform="translate(-2379.18 -2740.008)" fill="#fff"/>
      <path id="Trazado_23845" data-name="Trazado 23845" d="M2773.074,2767.724v-.713h2.24v7.09h-2.24v-.728a2.949,2.949,0,0,1-2.126.871,3.693,3.693,0,0,1,0-7.376,3,3,0,0,1,2.126.856m-3.253,2.825a1.614,1.614,0,1,0,1.612-1.7,1.634,1.634,0,0,0-1.612,1.7" transform="translate(-2414.041 -2753.706)" fill="#fff"/>
      <path id="Trazado_23846" data-name="Trazado 23846" d="M2814.029,2773.234l3.338-3.609h-3.1V2767.6h6.106v1.555l-3.181,3.523h3.381v2.012h-6.548Z" transform="translate(-2451.522 -2754.294)" fill="#fff"/>
      <path id="Trazado_23847" data-name="Trazado 23847" d="M2622.857,2741.618a10.647,10.647,0,1,1-10.648-10.647,10.648,10.648,0,0,1,10.648,10.647" transform="translate(-2280.543 -2724.819)" fill="#00e300"/>
    </g>
    <path id="Trazado_23848" data-name="Trazado 23848" d="M2628.063,2746.521c1.787,3.666,1.627,8.476-3.025,10.742s-12.033,1.132-13.819-2.535,2.394-9.34,7.045-11.606,8.012-.267,9.8,3.4" transform="translate(-2287.975 -2733.825)" fill="#cef46d"/>
    <path id="Trazado_23849" data-name="Trazado 23849" d="M2638.995,2767.5c-1.325,2.242-7.062,2.615-10.169.778s-2.406-5.184-1.081-7.427a5.031,5.031,0,0,1,7.232-1.818c3.107,1.836,5.343,6.224,4.017,8.466" transform="translate(-2300.708 -2746.723)" fill="#ff009c"/>
    <path id="Trazado_23850" data-name="Trazado 23850" d="M2641.967,2771.519a3.293,3.293,0,0,1-2.323,4.272c-2.255.572-5.427-.566-5.842-2.2s2.085-3.152,4.339-3.723,3.411.017,3.826,1.653" transform="translate(-2306.451 -2755.947)" fill="#8845ce"/>
    <path id="Trazado_23851" data-name="Trazado 23851" d="M2651.058,2779.081a1.612,1.612,0,1,1-1.612-1.612,1.612,1.612,0,0,1,1.612,1.612" transform="translate(-2317.78 -2762.237)" fill="#fff"/>
  </g>
</svg>
